<svg width="12" height="16" viewBox="0 0 12 16" fill="none" xmlns="http://www.w3.org/2000/svg">
<path d="M0.250044 1.25V14.75C0.250472 14.8867 0.288169 15.0207 0.359077 15.1375C0.429985 15.2544 0.531417 15.3497 0.652458 15.4131C0.773499 15.4766 0.909564 15.5059 1.04601 15.4978C1.18245 15.4897 1.3141 15.4446 1.42679 15.3673L11.1768 8.61725C11.581 8.3375 11.581 7.664 11.1768 7.3835L1.42679 0.633503C1.31434 0.555372 1.18262 0.509554 1.04595 0.501027C0.909278 0.4925 0.772885 0.521591 0.651588 0.585139C0.530291 0.648686 0.428728 0.74426 0.357935 0.861476C0.287143 0.978692 0.249827 1.11307 0.250044 1.25Z" fill="#265E54"/>
</svg>
