<svg width="12" height="16" viewBox="0 0 12 16" fill="none" xmlns="http://www.w3.org/2000/svg">
<path d="M11.75 14.75L11.75 1.25C11.7495 1.11331 11.7118 0.979339 11.6409 0.862489C11.57 0.745638 11.4686 0.650339 11.3475 0.586849C11.2265 0.523358 11.0904 0.494081 10.954 0.502169C10.8176 0.510256 10.6859 0.555401 10.5732 0.632746L0.823207 7.38275C0.418957 7.6625 0.418957 8.336 0.823207 8.6165L10.5732 15.3665C10.6857 15.4446 10.8174 15.4904 10.9541 15.499C11.0907 15.5075 11.2271 15.4784 11.3484 15.4149C11.4697 15.3513 11.5713 15.2557 11.6421 15.1385C11.7129 15.0213 11.7502 14.8869 11.75 14.75Z" fill="#265E54"/>
</svg>
