<svg width="25" height="25" viewBox="0 0 25 25" fill="none" xmlns="http://www.w3.org/2000/svg">
<path fill-rule="evenodd" clip-rule="evenodd" d="M1 1.49998H10.5C10.7762 1.49998 11 1.72383 11 1.99998V11.5C11 11.7761 10.7762 12 10.5 12H1C0.723844 12 0.5 11.7761 0.5 11.5V1.99998C0.5 1.72383 0.723844 1.49998 1 1.49998ZM18.6348 0.708327L24.2917 6.3652C24.4869 6.56045 24.4869 6.87701 24.2917 7.0723L18.6348 12.7291C18.4395 12.9244 18.123 12.9244 17.9277 12.7291L12.2708 7.07226C12.0756 6.87701 12.0756 6.56045 12.2708 6.36517L17.9277 0.708327C18.123 0.513077 18.4395 0.513077 18.6348 0.708327ZM1 14H10.5C10.7762 14 11 14.2238 11 14.5V24C11 24.2761 10.7762 24.5 10.5 24.5H1C0.723844 24.5 0.5 24.2761 0.5 24V14.5C0.5 14.2238 0.723844 14 1 14ZM13.5 14H23C23.2762 14 23.5 14.2238 23.5 14.5V24C23.5 24.2761 23.2762 24.5 23 24.5H13.5C13.2238 24.5 13 24.2761 13 24V14.5C13 14.2238 13.2238 14 13.5 14Z" fill="#D2A83F"/>
</svg>
