<svg width="14" height="9" viewBox="0 0 14 9" fill="none" xmlns="http://www.w3.org/2000/svg">
<path d="M8.71435 7.35714C8.86591 7.35714 9.01125 7.41735 9.11842 7.52451C9.22558 7.63167 9.28578 7.77702 9.28578 7.92857C9.28578 8.08012 9.22558 8.22547 9.11842 8.33263C9.01125 8.4398 8.86591 8.5 8.71435 8.5H5.28578C5.13423 8.5 4.98889 8.4398 4.88172 8.33263C4.77456 8.22547 4.71436 8.08012 4.71436 7.92857C4.71436 7.77702 4.77456 7.63167 4.88172 7.52451C4.98889 7.41735 5.13423 7.35714 5.28578 7.35714H8.71435ZM11.0001 3.92857C11.1516 3.92857 11.297 3.98878 11.4041 4.09594C11.5113 4.2031 11.5715 4.34845 11.5715 4.5C11.5715 4.65155 11.5113 4.7969 11.4041 4.90406C11.297 5.01122 11.1516 5.07143 11.0001 5.07143H3.00007C2.84852 5.07143 2.70317 5.01122 2.59601 4.90406C2.48885 4.7969 2.42864 4.65155 2.42864 4.5C2.42864 4.34845 2.48885 4.2031 2.59601 4.09594C2.70317 3.98878 2.84852 3.92857 3.00007 3.92857H11.0001ZM12.7144 0.5C12.8659 0.5 13.0113 0.560204 13.1184 0.667368C13.2256 0.774531 13.2858 0.919876 13.2858 1.07143C13.2858 1.22298 13.2256 1.36833 13.1184 1.47549C13.0113 1.58265 12.8659 1.64286 12.7144 1.64286H1.28578C1.13423 1.64286 0.988887 1.58265 0.881723 1.47549C0.774559 1.36833 0.714355 1.22298 0.714355 1.07143C0.714355 0.919876 0.774559 0.774531 0.881723 0.667368C0.988887 0.560204 1.13423 0.5 1.28578 0.5H12.7144Z" fill="#A9A9A9"/>
</svg>
