<svg width="29" height="28" viewBox="0 0 29 28" fill="none" xmlns="http://www.w3.org/2000/svg">
<path fill-rule="evenodd" clip-rule="evenodd" d="M14.5 27.75C6.90587 27.75 0.75 21.5941 0.75 14C0.75 6.40587 6.90587 0.25 14.5 0.25C22.0941 0.25 28.25 6.40587 28.25 14C28.25 21.5941 22.0941 27.75 14.5 27.75ZM13.4687 11.25V20.875H15.5312V11.25H13.4687ZM14.5 9.875C14.8647 9.875 15.2144 9.73013 15.4723 9.47227C15.7301 9.21441 15.875 8.86467 15.875 8.5C15.875 8.13533 15.7301 7.78559 15.4723 7.52773C15.2144 7.26987 14.8647 7.125 14.5 7.125C14.1353 7.125 13.7856 7.26987 13.5277 7.52773C13.2699 7.78559 13.125 8.13533 13.125 8.5C13.125 8.86467 13.2699 9.21441 13.5277 9.47227C13.7856 9.73013 14.1353 9.875 14.5 9.875Z" fill="#595959"/>
</svg>
