<svg width="14" height="14" viewBox="0 0 14 14" fill="none" xmlns="http://www.w3.org/2000/svg">
<path fill-rule="evenodd" clip-rule="evenodd" d="M10.2127 9.12199C11.044 8.05022 11.4358 6.70201 11.3084 5.35163C11.1809 4.00125 10.5438 2.75014 9.52666 1.85282C8.50951 0.955512 7.18872 0.479401 5.83298 0.521353C4.47725 0.563305 3.18842 1.12017 2.22869 2.07865C1.26813 3.03781 0.709446 4.32713 0.666492 5.6839C0.623537 7.04066 1.09955 8.36275 1.99751 9.38074C2.89548 10.3987 4.14783 11.036 5.49934 11.1627C6.85086 11.2894 8.19983 10.896 9.27136 10.0627L9.30003 10.0927L12.128 12.9213C12.19 12.9833 12.2635 13.0324 12.3444 13.0659C12.4254 13.0994 12.5121 13.1167 12.5997 13.1167C12.6873 13.1167 12.774 13.0994 12.855 13.0659C12.9359 13.0324 13.0094 12.9833 13.0714 12.9213C13.1333 12.8594 13.1824 12.7858 13.216 12.7049C13.2495 12.624 13.2667 12.5373 13.2667 12.4497C13.2667 12.3621 13.2495 12.2753 13.216 12.1944C13.1824 12.1135 13.1333 12.0399 13.0714 11.978L10.2427 9.14999L10.2127 9.12199ZM8.82869 3.02199C9.20509 3.39231 9.50445 3.83349 9.70949 4.32008C9.91454 4.80667 10.0212 5.32904 10.0234 5.85707C10.0255 6.38509 9.92309 6.90832 9.72202 7.39656C9.52095 7.88481 9.22519 8.32841 8.85182 8.70178C8.47845 9.07516 8.03485 9.37091 7.5466 9.57198C7.05836 9.77306 6.53513 9.87547 6.00711 9.87332C5.47908 9.87117 4.95671 9.7645 4.47012 9.55945C3.98353 9.35441 3.54235 9.05506 3.17203 8.67865C2.43197 7.92645 2.01913 6.91228 2.02343 5.85707C2.02772 4.80185 2.44881 3.79108 3.19497 3.04493C3.94112 2.29877 4.95189 1.87769 6.00711 1.87339C7.06232 1.86909 8.07649 2.28193 8.82869 3.02199Z" fill="#A9A9A9"/>
</svg>
