<svg width="26" height="28" viewBox="0 0 26 28" fill="none" xmlns="http://www.w3.org/2000/svg">
<path d="M13 17.625C15.002 17.625 16.625 16.002 16.625 14C16.625 11.998 15.002 10.375 13 10.375C10.998 10.375 9.375 11.998 9.375 14C9.375 16.002 10.998 17.625 13 17.625Z" stroke="#797878" stroke-width="1.5"/>
<path d="M15.1328 2.10029C14.6893 1.91663 14.1262 1.91663 13.0001 1.91663C11.8739 1.91663 11.3108 1.91663 10.8673 2.10029C10.5739 2.22175 10.3073 2.39983 10.0828 2.62438C9.85826 2.84892 9.68018 3.11551 9.55872 3.40892C9.44756 3.67838 9.40285 3.99375 9.38593 4.45171C9.37806 4.78271 9.28637 5.1063 9.11942 5.39222C8.95248 5.67814 8.71574 5.91705 8.43135 6.08658C8.14232 6.24822 7.81701 6.3339 7.48587 6.33559C7.15472 6.33728 6.82855 6.25493 6.53789 6.09625C6.13189 5.88117 5.83826 5.76275 5.54706 5.72408C4.91186 5.64055 4.26949 5.81266 3.76114 6.20258C3.38172 6.49621 3.09897 6.98317 2.53589 7.95829C1.97281 8.93342 1.69006 9.42038 1.62843 9.89767C1.58691 10.2124 1.60779 10.5322 1.68989 10.8388C1.772 11.1455 1.91371 11.4329 2.10693 11.6848C2.28576 11.9168 2.53589 12.1113 2.92376 12.3554C3.49531 12.7143 3.86264 13.3257 3.86264 14C3.86264 14.6742 3.49531 15.2856 2.92376 15.6433C2.53589 15.8886 2.28456 16.0831 2.10693 16.3151C1.91371 16.567 1.772 16.8544 1.68989 17.1611C1.60779 17.4677 1.58691 17.7875 1.62843 18.1023C1.69126 18.5783 1.97281 19.0665 2.53468 20.0416C3.09897 21.0168 3.38051 21.5037 3.76114 21.7973C4.013 21.9906 4.30046 22.1323 4.6071 22.2144C4.91374 22.2965 5.23355 22.3174 5.54826 22.2758C5.83826 22.2372 6.13189 22.1188 6.53789 21.9037C6.82855 21.745 7.15472 21.6626 7.48587 21.6643C7.81701 21.666 8.14232 21.7517 8.43135 21.9133C9.01497 22.2517 9.36176 22.874 9.38593 23.5482C9.40285 24.0074 9.44635 24.3215 9.55872 24.591C9.68018 24.8844 9.85826 25.151 10.0828 25.3755C10.3073 25.6001 10.5739 25.7782 10.8673 25.8996C11.3108 26.0833 11.8739 26.0833 13.0001 26.0833C14.1262 26.0833 14.6893 26.0833 15.1328 25.8996C15.4262 25.7782 15.6928 25.6001 15.9173 25.3755C16.1418 25.151 16.3199 24.8844 16.4414 24.591C16.5526 24.3215 16.5973 24.0074 16.6142 23.5482C16.6383 22.874 16.9851 22.2505 17.5688 21.9133C17.8578 21.7517 18.1831 21.666 18.5142 21.6643C18.8454 21.6626 19.1716 21.745 19.4622 21.9037C19.8682 22.1188 20.1618 22.2372 20.4518 22.2758C20.7666 22.3174 21.0864 22.2965 21.393 22.2144C21.6997 22.1323 21.9871 21.9906 22.239 21.7973C22.6196 21.5049 22.9011 21.0168 23.4642 20.0416C24.0273 19.0665 24.3101 18.5795 24.3717 18.1023C24.4132 17.7875 24.3923 17.4677 24.3102 17.1611C24.2281 16.8544 24.0864 16.567 23.8932 16.3151C23.7143 16.0831 23.4642 15.8886 23.0763 15.6445C22.7935 15.4722 22.559 15.2309 22.3948 14.9433C22.2306 14.6557 22.1421 14.3311 22.1375 14C22.1375 13.3257 22.5048 12.7143 23.0763 12.3566C23.4642 12.1113 23.7156 11.9168 23.8932 11.6848C24.0864 11.4329 24.2281 11.1455 24.3102 10.8388C24.3923 10.5322 24.4132 10.2124 24.3717 9.89767C24.3088 9.42158 24.0273 8.93342 23.4654 7.95829C22.9011 6.98317 22.6196 6.49621 22.239 6.20258C21.9871 6.00936 21.6997 5.86765 21.393 5.78555C21.0864 5.70345 20.7666 5.68256 20.4518 5.72408C20.1618 5.76275 19.8682 5.88117 19.461 6.09625C19.1705 6.25472 18.8446 6.33695 18.5136 6.33525C18.1827 6.33356 17.8576 6.24801 17.5688 6.08658C17.2844 5.91705 17.0476 5.67814 16.8807 5.39222C16.7137 5.1063 16.622 4.78271 16.6142 4.45171C16.5973 3.99254 16.5538 3.67838 16.4414 3.40892C16.3199 3.11551 16.1418 2.84892 15.9173 2.62438C15.6928 2.39983 15.4262 2.22175 15.1328 2.10029Z" stroke="#797878" stroke-width="2"/>
</svg>
